<!--?xml version="1.0" standalone="no"?-->
<svg version="1.0" xmlns="http://www.w3.org/2000/svg" width="299.000000pt" height="300.000000pt" viewBox="0 0 299.000000 300.000000" preserveAspectRatio="xMidYMid meet">
<g transform="translate(0.000000,300.000000) scale(0.100000,-0.100000)" fill="#070707" stroke="none">
<path class="node" id="node1" d="M1340 2984 c-361 -42 -647 -179 -896 -428 -248 -248 -381 -526 -430 -896 -30 -236 12 -523 112 -751 181 -414 529 -721 959 -847 82 -24 332 -62 410 -62 78 0 328 38 410 62 435 127 785 439 963 858 50 118 87 260 107 413 19 147 19 184 0 332 -47 362 -183 645 -429 891 -252 252 -536 387 -906 429 -155 17 -148 17 -300 -1z m330 -225 c396 -49 758 -307 952 -679 78 -150 111 -260 134 -444 13 -109 14 -149 4 -241 -32 -313 -152 -574 -360 -784 -218 -222 -464 -341 -775 -376 -514 -58 -1004 207 -1254 678 -224 422 -190 917 92 1325 66 96 195 225 295 295 273 193 577 268 912 226z"/>
<path class="node" id="node2" d="M1460 2570 l0 -50 -37 0 c-57 0 -239 -44 -321 -78 -93 -38 -167 -83 -248 -149 -35 -29 -67 -53 -71 -53 -4 0 -21 14 -38 30 l-31 30 -22 -20 c-29 -27 -28 -32 8 -58 16 -13 30 -27 30 -32 0 -5 -25 -44 -56 -87 -122 -169 -180 -330 -192 -533 -7 -103 -8 -105 -32 -108 -62 -7 -70 -11 -70 -42 0 -29 1 -30 49 -30 l48 0 18 -82 c22 -104 49 -186 88 -263 37 -74 110 -185 142 -215 33 -31 31 -44 -9 -76 l-34 -27 20 -28 21 -28 83 67 c46 37 83 71 84 76 0 4 -29 42 -63 85 -100 120 -156 226 -204 386 -26 86 -26 345 0 430 74 246 195 415 387 540 77 50 148 82 260 117 64 19 97 23 225 23 128 0 161 -4 225 -23 112 -35 183 -67 260 -117 192 -125 313 -294 387 -540 26 -85 26 -344 0 -430 -48 -160 -104 -266 -204 -386 -34 -43 -63 -81 -63 -85 1 -5 38 -39 84 -76 l83 -67 21 28 20 28 -34 27 c-40 32 -42 45 -9 76 32 30 105 141 142 215 39 77 66 159 88 263 l18 82 48 0 c48 0 49 1 49 30 0 31 -8 35 -70 42 -24 3 -25 5 -32 108 -12 203 -70 364 -192 533 -31 43 -56 82 -56 87 0 5 14 19 30 32 36 26 37 31 8 58 l-22 20 -31 -30 c-17 -16 -34 -30 -38 -30 -4 0 -36 24 -71 53 -81 66 -155 111 -248 149 -82 34 -264 78 -320 78 l-38 0 0 50 0 50 -35 0 -35 0 0 -50z"/>
<path class="node" id="node3" d="M1910 1911 c-30 -26 -118 -100 -195 -164 -121 -101 -143 -115 -165 -109 -111 31 -200 -33 -200 -145 l0 -52 -70 -57 c-38 -31 -70 -59 -70 -63 1 -3 21 -28 46 -56 l46 -50 66 72 c64 70 68 72 103 67 49 -8 99 10 135 47 27 28 29 36 29 106 l1 75 154 171 c143 156 186 207 178 207 -2 0 -28 -22 -58 -49z"/>
</g>
<g transform="translate(0.000000,300.000000) scale(0.100000,-0.100000)" fill="#A1A1A1" stroke="none">





</g>
</svg>